<svg id="panda" data-name="HAPPY copy" xmlns="http://www.w3.org/2000/svg" viewBox="0 0 647.97 1246.9">
  <defs>
    <style>.cls-1{fill:#2980b9;}.cls-2{fill:#29abe2;}.cls-10,.cls-2,.cls-4,.cls-8,.cls-9{stroke:#000;}.cls-2,.cls-4,.cls-8,.cls-9{stroke-miterlimit:10;}.cls-2,.cls-4{stroke-width:5px;}.cls-3{fill:#333;}.cls-10,.cls-4,.cls-8{fill:none;}.cls-5{fill:gray;}.cls-6{fill:#f0f0f0;}.cls-7{fill:#fff;}.cls-8{stroke-width:8px;}.cls-10{stroke-linecap:round;stroke-linejoin:round;stroke-width:7px;}</style>
  </defs>
  <title>plain_panda</title>
  <rect id="panda-bgrect" class="cls-1" width="647.97" height="1246.9"/>
  <circle id="panda-pictrect" class="cls-2" cx="323.82" cy="499.13" r="220.65"/>
  <path d="M444.4,671.64a220.65,220.65,0,0,1-312,.82l.67.66c19.69-93.29,81.61-161.4,154.94-161.4s135.26,68.11,154.94,161.4Z" transform="translate(31.33 61.67)"/>
  <circle class="cls-3" cx="205.06" cy="413.43" r="30"/>
  <circle class="cls-3" cx="438.46" cy="413.43" r="30"/>
  <polygon class="cls-2" points="64.16 270.53 321.63 199.74 326 199.74 583.47 270.53 64.16 270.53"/>
  <line class="cls-4" x1="324.79" y1="199.74" x2="453.72" y2="270.36"/>
  <line class="cls-4" x1="324.79" y1="199.74" x2="200.68" y2="270.36"/>
  <line class="cls-4" x1="324.79" y1="199.74" x2="324.79" y2="269.52"/>
  <circle class="cls-5" cx="210.41" cy="419.6" r="17.26"/>
  <circle class="cls-5" cx="434.76" cy="417.95" r="17.26"/>
  <circle class="cls-6" cx="328.75" cy="514.11" r="139.71"/>
  <path d="M281.51,410.65c7.1,8.77-12,13.46-27.46,26s-33.83,15.62-40.93,6.84-.3-26.06,15.2-38.61S274.41,401.87,281.51,410.65Z" transform="translate(31.33 61.67)"/>
  <circle class="cls-7" cx="275.11" cy="480.41" r="11.71"/>
  <circle cx="243.37" cy="418.74" r="3.9" transform="translate(-193.48 356.4) rotate(-45)"/>
  <path d="M302,410.65c-7.1,8.77,12,13.46,27.46,26s33.83,15.62,40.93,6.84.3-26.06-15.2-38.61S309.14,401.87,302,410.65Z" transform="translate(31.33 61.67)"/>
  <circle class="cls-7" cx="371.1" cy="480.41" r="11.71"/>
  <circle cx="371.51" cy="480.41" r="3.9"/>
  <line class="cls-8" x1="323.82" y1="583" x2="323.82" y2="601.33"/>
  <path class="cls-9" d="M296.44,521.39c17.66-1.9,31.62-18,32.7-38v-.27l-71.5-.46,71.5.46c0-6.56-16.78-11.87-37.52-11.87-19.33,0-35,4.31-35,9.64,0,20.93,14.08,38.16,32.2,40.43Z" transform="translate(31.33 61.67)"/>
  <polyline class="cls-10" points="350.13 601.55 323.49 601.33 337.54 601.44"/>
  <polyline class="cls-10" points="322.13 601.55 295.49 601.33 309.54 601.44"/>
</svg>